<?xml version="1.0" encoding="UTF-8" standalone="no"?>
<!-- Created with Inkscape (http://www.inkscape.org/) -->

<svg
   xmlns:dc="http://purl.org/dc/elements/1.1/"
   xmlns:cc="http://creativecommons.org/ns#"
   xmlns:rdf="http://www.w3.org/1999/02/22-rdf-syntax-ns#"
   xmlns:svg="http://www.w3.org/2000/svg"
   xmlns="http://www.w3.org/2000/svg"
   version="1.1"
   width="299.99521"
   height="299.99396"
   viewBox="0 0 239.99617 239.99516"
   id="svg2">
  <metadata
     id="metadata1465">
    <rdf:RDF>
      <cc:Work
         rdf:about="">
        <dc:format>image/svg+xml</dc:format>
        <dc:type
           rdf:resource="http://purl.org/dc/dcmitype/StillImage" />
        <dc:title></dc:title>
      </cc:Work>
    </rdf:RDF>
  </metadata>
  <defs
     id="defs4"
     style="stroke-linecap:butt;stroke-linejoin:round">
    <style
       type="text/css"
       id="style6" />
  </defs>
  <g
     transform="translate(-341.67742,-154.54541)"
     id="figure_1"
     style="stroke-linecap:butt;stroke-linejoin:round">
    <g
       transform="translate(-390.38753,147.21317)"
       id="axes_2"
       style="stroke-linecap:butt;stroke-linejoin:round">
      <g
         transform="matrix(0.40914615,0,0,1.0150737,432.64793,-3.7281643)"
         id="patch_8"
         style="fill:#000080;stroke-linecap:butt;stroke-linejoin:round">
        <path
           d="m 732.597,247.01 585.003,0 0,-235.7964 -585.003,0 z"
           id="path569"
           style="fill:#000080;stroke-linecap:butt;stroke-linejoin:round" />
      </g>
      <g
         transform="matrix(0.40914615,0,0,1.0150737,432.64793,-3.7281643)"
         id="line2d_46"
         style="stroke-linecap:butt;stroke-linejoin:round">
        <path
           d="m 732.234,248.35 15.154,-0.363 15,-0.573 15.295,-0.803 15.166,-1.016 14.675,-1.189 15.461,-1.474 14.536,-1.592 15.077,-1.863 15.568,-2.149 16.011,-2.449 14.562,-2.438 14.834,-2.69 15.068,-2.946 15.265,-3.204 15.422,-3.46 15.541,-3.715 15.621,-3.964 15.66,-4.206 15.66,-4.438 15.62,-4.658 15.54,-4.864 15.43,-5.053 15.26,-5.223 15.07,-5.372 16.68,-6.193 16.32,-6.319 15.92,-6.406 15.47,-6.453 16.59,-7.175 15.91,-7.124 16.63,-7.703 15.65,-7.486 15.86,-7.823 16.78,-8.54 16.76,-8.7942 16.33,-8.8239 16.55,-9.1954 7.42,-4.2107 -7.18,4.0734 0,0 -16.35,9.0951 -16.21,8.7659 -16.67,8.7538 -16.7,8.51 -15.8,7.803 -15.59,7.473 -16.58,7.694 -15.87,7.118 -16.56,7.174 -15.43,6.455 -15.9,6.41 -16.29,6.325 -16.66,6.203 -15.05,5.382 -15.25,5.235 -15.42,5.065 -15.53,4.878 -15.62,4.674 -15.66,4.454 -15.66,4.223 -15.625,3.982 -15.548,3.733 -15.433,3.479 -15.277,3.222 -15.084,2.964 -14.852,2.709 -16.384,2.746 -15.992,2.435 -15.546,2.135 -15.053,1.849 -16.086,1.74 -15.352,1.432 -15.969,1.252 -14.931,0.953 -15.022,0.745 -15.744,0.553 -10.007,0.229 0,0"
           clip-path="url(#p44d78be1b3)"
           id="path572"
           style="fill:none;stroke:#8000ff;stroke-width:6;stroke-linecap:butt;stroke-linejoin:round;stroke-dasharray:3, 5, 1, 5;stroke-dashoffset:0" />
      </g>
      <g
         transform="matrix(0.40914615,0,0,1.0150737,432.64793,-3.7281643)"
         id="line2d_47"
         style="stroke-linecap:butt;stroke-linejoin:round">
        <path
           d="m 732.234,52.249 0.936,9.9359 0.947,9.0773 1.925,15.981 1.968,13.6088 2.011,11.72 2.053,10.19 2.094,8.935 2.136,7.892 2.177,7.019 2.218,6.277 2.259,5.645 2.298,5.1 2.338,4.627 2.378,4.217 2.416,3.854 2.455,3.537 2.493,3.255 2.531,3.003 2.569,2.78 2.605,2.579 2.642,2.398 4.031,3.295 4.111,2.978 4.189,2.702 4.266,2.461 4.341,2.25 4.415,2.064 4.488,1.899 6.094,2.305 6.215,2.081 6.333,1.885 6.447,1.715 8.213,1.936 8.377,1.735 8.532,1.563 10.431,1.677 10.628,1.487 12.628,1.524 12.85,1.318 13.047,1.127 13.22,0.939 13.367,0.749 13.487,0.546 13.582,0.327 13.65,0.082 11.735,-0.145 11.75,-0.368 11.74,-0.612 9.78,-0.715 9.75,-0.914 9.72,-1.128 9.67,-1.353 9.63,-1.59 9.56,-1.837 9.49,-2.09 9.41,-2.348 9.32,-2.61 9.23,-2.87 9.11,-3.124 9,-3.373 8.87,-3.608 8.74,-3.832 8.59,-4.036 8.44,-4.222 8.29,-4.385 8.11,-4.525 9.5,-5.577 9.24,-5.696 8.95,-5.77 10.08,-6.766 9.66,-6.738 10.5,-7.589 11.09,-8.296 11.4,-8.809 11.35,-9.069 10.07,-8.315 8.72,-7.49 6.73,-6.0557 5.06,-4.8132 4.09,-4.1993 2.82,-3.217 1.83,-2.417 1.09,-1.7742 0.58,-1.2699 0.26,-1.0819 -0.01,-0.7317 -0.21,-0.6146 -0.4,-0.4995 -0.6,-0.3854 -0.8,-0.2726 -1.27,-0.1834 -1.58,-0.0123 -2.29,0.2059 -3.22,0.5329 -4.4,0.9736 -5.84,1.5349 -8.4,2.46 -13.62,4.2536 -34.28,10.7753 -16.12,4.7995 -14.38,4.059 -13.64,3.622 -12.64,3.14 -13.08,3.017 -11.8,2.5 -12.09,2.337 -12.36,2.139 -10.79,1.653 -10.97,1.461 -11.11,1.249 -11.25,1.013 -9.47,0.648 -9.54,0.455 -9.6,0.248 -9.66,0.027 -9.71,-0.21 -9.74,-0.462 -9.77,-0.732 -7.83,-0.79 -7.83,-0.984 -7.832,-1.186 -7.828,-1.401 -7.82,-1.626 -7.805,-1.864 -7.786,-2.115 -7.762,-2.381 -7.733,-2.663 -5.778,-2.193 -5.757,-2.369 -5.734,-2.553 -5.708,-2.748 -5.681,-2.952 -5.652,-3.1674 -5.621,-3.3945 -5.587,-3.6343 -5.552,-3.8886 -5.515,-4.1586 -5.476,-4.4454 -5.434,-4.7506 -5.392,-5.0768 -5.346,-5.426 -5.3,-5.8003 -5.251,-6.2017 -5.2,-6.6349 -5.147,-7.1029 -3.402,-5.0139 -3.377,-5.2514 -3.352,-5.5028 -3.326,-5.7688 -3.3,-6.05063 L 833.554,3.45303 831.371,-1 l 0,0"
           clip-path="url(#p44d78be1b3)"
           id="path575"
           style="fill:none;stroke:#00b5eb;stroke-width:6;stroke-linecap:square;stroke-linejoin:round" />
      </g>
      <g
         transform="matrix(0.40914615,0,0,1.0150737,432.64793,-3.7281643)"
         id="line2d_48"
         style="stroke-linecap:butt;stroke-linejoin:round">
        <path
           d="m 742.297,-1 1.871,15.895 2.136,15.7855 2.177,14.0365 2.218,12.5548 2.259,11.2892 2.298,10.1999 2.338,9.2554 2.378,8.4322 2.416,7.7105 2.455,7.073 2.493,6.51 2.531,6.008 2.569,5.559 2.605,5.158 2.642,4.795 2.678,4.47 2.714,4.173 2.75,3.905 2.784,3.66 2.818,3.436 2.853,3.232 4.341,4.502 4.415,4.129 4.488,3.799 4.559,3.506 4.627,3.244 4.695,3.009 4.761,2.799 4.825,2.608 4.887,2.437 6.611,3.009 6.714,2.764 6.814,2.548 6.908,2.354 6.999,2.181 8.87,2.509 8.996,2.292 9.113,2.1 9.221,1.923 11.195,2.096 11.322,1.877 11.432,1.67 11.527,1.467 11.604,1.262 11.665,1.049 11.71,0.826 11.738,0.588 11.753,0.331 9.78,0.065 9.78,-0.141 9.75,-0.36 9.72,-0.593 9.67,-0.837 9.63,-1.093 9.56,-1.359 7.6,-1.285 7.55,-1.464 7.49,-1.645 7.44,-1.826 7.37,-2.006 7.3,-2.185 7.22,-2.359 7.15,-2.529 7.07,-2.693 8.71,-3.585 8.56,-3.81 8.41,-4.016 8.25,-4.197 8.08,-4.354 7.9,-4.483 9.24,-5.513 8.95,-5.614 10.08,-6.615 9.66,-6.618 10.5,-7.482 11.09,-8.208 11.4,-8.737 10.37,-8.226 10.19,-8.357 8.84,-7.548 6.85,-6.1124 5.16,-4.8737 4.21,-4.2699 2.91,-3.2814 1.92,-2.4658 1.16,-1.8147 0.73,-1.545 0.26,-1.0837 -0.01,-0.735 -0.21,-0.6177 -0.4,-0.4994 -0.6,-0.3818 -0.8,-0.2676 -1.27,-0.1809 -1.93,0.0039 -2.36,0.241 -3.31,0.5766 -4.49,1.0218 -5.94,1.5846 -8.53,2.5162 -13.79,4.3134 -31.99,10.0678 -16.02,4.7877 -14.3,4.06 -13.57,3.63 -12.57,3.152 -13.04,3.034 -11.74,2.521 -12.05,2.362 -12.33,2.17 -10.76,1.681 -10.94,1.495 -11.09,1.285 -11.23,1.054 -9.45,0.685 -9.52,0.495 -9.6,0.291 -9.65,0.071 -9.7,-0.161 -9.73,-0.411 -9.76,-0.676 -7.83,-0.745 -7.83,-0.935 -7.83,-1.135 -7.834,-1.346 -7.822,-1.569 -7.809,-1.804 -7.792,-2.051 -7.768,-2.313 -7.741,-2.591 -7.708,-2.886 -5.757,-2.369 -5.734,-2.554 -5.708,-2.748 -5.681,-2.952 -5.652,-3.1678 -5.621,-3.3949 -5.587,-3.6345 -5.552,-3.8887 -5.515,-4.1587 -5.476,-4.4455 -5.434,-4.7507 -5.392,-5.0769 -5.346,-5.4261 -5.3,-5.8002 -5.251,-6.2018 -5.2,-6.6354 -5.147,-7.1034 -3.402,-5.0143 -3.377,-5.2515 -3.352,-5.5029 -3.326,-5.769 -3.3,-6.05073 -3.272,-6.34962 -2.18,-4.44535 0,0"
           clip-path="url(#p44d78be1b3)"
           id="path578"
           style="fill:none;stroke:#80ffb4;stroke-width:6;stroke-linecap:square;stroke-linejoin:round" />
      </g>
      <g
         transform="matrix(0.40914615,0,0,1.0150737,432.64793,-3.7281643)"
         id="line2d_49"
         style="stroke-linecap:butt;stroke-linejoin:round">
        <path
           d="m 756.093,-1 1.501,8.77531 2.378,12.64849 2.416,11.5654 2.455,10.6104 2.493,9.7644 2.531,9.0118 2.569,8.3394 2.605,7.7365 2.642,7.1938 2.678,6.7039 2.714,6.2602 2.75,5.8574 2.784,5.49 2.818,5.155 2.853,4.848 2.886,4.568 2.919,4.309 2.951,4.071 2.984,3.851 4.535,5.401 4.605,4.994 4.673,4.629 4.739,4.302 4.804,4.007 4.867,3.742 4.927,3.501 4.988,3.282 5.045,3.084 5.101,2.902 6.885,3.613 6.977,3.351 7.065,3.115 7.147,2.902 7.226,2.71 7.299,2.535 9.221,2.945 9.32,2.718 9.41,2.508 9.49,2.313 9.562,2.127 9.623,1.948 11.615,2.104 11.674,1.848 9.761,1.339 9.781,1.15 9.79,0.953 9.79,0.744 9.78,0.524 9.76,0.291 9.74,0.045 9.69,-0.213 7.72,-0.366 7.69,-0.545 7.64,-0.73 7.6,-0.918 7.55,-1.111 7.49,-1.305 7.44,-1.5 7.37,-1.697 7.3,-1.889 7.22,-2.08 7.15,-2.265 7.07,-2.444 6.98,-2.616 6.89,-2.778 8.47,-3.685 8.31,-3.9 8.15,-4.09 7.97,-4.251 7.8,-4.386 9.09,-5.402 8.81,-5.505 8.51,-5.559 9.54,-6.491 10.35,-7.344 9.75,-7.179 10.21,-7.784 10.37,-8.18 10.19,-8.321 8.84,-7.532 6.85,-6.106 5.16,-4.8673 4.21,-4.2631 2.91,-3.2777 1.92,-2.4651 1.16,-1.815 0.73,-1.544 0.26,-1.083 -0.01,-0.7355 -0.21,-0.6192 -0.4,-0.5015 -0.6,-0.3836 -0.8,-0.269 -1.27,-0.1803 -1.93,0.0058 -2.36,0.2417 -3.31,0.5769 -4.49,1.0236 -5.94,1.5844 -8.53,2.5171 -14.79,4.6325 -30.99,9.7484 -16.02,4.7879 -14.3,4.057 -13.57,3.63 -12.57,3.152 -13.04,3.034 -11.74,2.522 -12.05,2.361 -12.33,2.171 -10.76,1.682 -10.94,1.494 -11.09,1.286 -11.23,1.054 -9.45,0.685 -9.52,0.495 -9.6,0.291 -9.65,0.072 -9.7,-0.162 -9.73,-0.41 -9.76,-0.676 -7.83,-0.744 -7.83,-0.934 -7.83,-1.135 -7.834,-1.346 -7.822,-1.569 -7.809,-1.803 -7.792,-2.05 -7.768,-2.312 -7.741,-2.59 -7.708,-2.885 -5.757,-2.368 -5.734,-2.554 -5.708,-2.747 -5.681,-2.952 -5.652,-3.1668 -5.621,-3.394 -5.587,-3.6341 -5.552,-3.8882 -5.515,-4.158 -5.476,-4.4448 -5.434,-4.7503 -5.392,-5.0764 -5.346,-5.4254 -5.3,-5.7993 -5.251,-6.2013 -5.2,-6.6346 -5.147,-7.1022 -3.402,-5.0135 -3.377,-5.2513 -3.352,-5.5025 -3.326,-5.7685 -3.3,-6.05002 -3.272,-6.34923 -2.19,-4.46655 0,0"
           clip-path="url(#p44d78be1b3)"
           id="path581"
           style="fill:none;stroke:#ffb360;stroke-width:6;stroke-linecap:square;stroke-linejoin:round" />
      </g>
      <g
         transform="matrix(0.40914615,0,0,1.0150737,432.64793,-3.7281643)"
         id="line2d_50"
         style="stroke-linecap:butt;stroke-linejoin:round">
        <path
           d="m 769.867,-1 1.28,5.66919 2.587,10.70661 2.624,9.9444 2.66,9.2571 2.696,8.6357 2.732,8.0721 2.766,7.5595 2.802,7.0921 2.835,6.6649 2.869,6.2736 2.903,5.9142 2.936,5.5837 2.967,5.2791 3,4.9978 3.031,4.737 3.063,4.496 3.092,4.272 4.695,6.023 4.761,5.603 4.825,5.223 4.887,4.879 4.948,4.57 5.007,4.289 5.064,4.033 5.12,3.799 5.172,3.584 5.225,3.389 5.274,3.209 7.106,4.023 7.187,3.757 7.263,3.517 7.335,3.299 7.401,3.1 7.464,2.916 9.41,3.408 9.49,3.163 9.562,2.934 9.623,2.716 9.675,2.505 9.717,2.298 9.751,2.09 9.774,1.879 9.784,1.663 9.79,1.437 9.79,1.202 9.77,0.956 9.75,0.695 9.71,0.423 7.73,0.134 7.71,-0.055 7.66,-0.25 7.63,-0.45 7.57,-0.654 7.52,-0.862 7.47,-1.071 7.4,-1.282 7.34,-1.49 7.26,-1.698 7.19,-1.901 7.11,-2.098 7.02,-2.289 6.93,-2.473 6.84,-2.645 6.74,-2.807 8.29,-3.717 8.11,-3.925 7.94,-4.103 7.75,-4.253 7.56,-4.372 8.81,-5.36 8.51,-5.437 9.54,-6.378 9.09,-6.345 9.82,-7.127 10.31,-7.758 10.47,-8.183 9.42,-7.628 8.32,-7.001 7.2,-6.315 6.03,-5.5846 4.42,-4.3874 3.11,-3.3949 2.08,-2.577 1.49,-2.1986 0.8,-1.5856 0.32,-1.1148 0.04,-0.7596 -0.16,-0.6464 -0.35,-0.5332 -0.55,-0.4166 -0.75,-0.2982 -1.21,-0.2132 -1.52,-0.0438 -2.22,0.1632 -3.13,0.4821 -4.3,0.9329 -5.74,1.4864 -8.28,2.4019 -13.46,4.188 -36.55,11.4822 -16.23,4.8112 -14.47,4.059 -13.71,3.614 -12.69,3.128 -13.14,2.998 -11.84,2.479 -12.13,2.311 -12.4,2.109 -10.82,1.622 -10.99,1.427 -11.14,1.211 -11.27,0.972 -9.48,0.611 -9.55,0.415 -9.62,0.205 -9.67,-0.02 -9.72,-0.26 -9.74,-0.515 -9.78,-0.787 -7.82,-0.837 -7.84,-1.034 -7.83,-1.239 -7.826,-1.456 -7.817,-1.684 -7.801,-1.925 -7.78,-2.181 -7.756,-2.45 -7.725,-2.736 -5.771,-2.25 -5.749,-2.429 -5.725,-2.617 -5.7,-2.815 -5.672,-3.023 -5.641,-3.2412 -5.61,-3.4732 -5.576,-3.7178 -5.54,-3.9767 -5.502,-4.2519 -5.462,-4.545 -5.42,-4.8572 -5.377,-5.1906 -5.331,-5.5472 -5.284,-5.9306 -5.234,-6.343 -5.183,-6.7873 -3.425,-4.789 -3.402,-5.0137 -3.377,-5.2515 -3.352,-5.5028 -3.326,-5.7689 -3.3,-6.05052 L 833.554,3.45349 831.37,-1 l 0,0"
           clip-path="url(#p44d78be1b3)"
           id="path584"
           style="fill:none;stroke:#ff0000;stroke-width:6;stroke-linecap:square;stroke-linejoin:round" />
      </g>
      <g
         transform="matrix(0.40914615,0,0,1.0150737,432.64793,-3.7281643)"
         id="patch_9"
         style="stroke-linecap:butt;stroke-linejoin:round">
        <path
           d="m 732.597,11.2136 585.003,0"
           id="path587"
           style="fill:none;stroke:#000000;stroke-linecap:square;stroke-linejoin:miter" />
      </g>
      <g
         transform="matrix(0.40914615,0,0,1.0150737,432.64793,-3.7281643)"
         id="patch_10"
         style="stroke-linecap:butt;stroke-linejoin:round">
        <path
           d="m 1317.6,247.01 0,-235.7964"
           id="path590"
           style="fill:none;stroke:#000000;stroke-linecap:square;stroke-linejoin:miter" />
      </g>
      <g
         transform="matrix(0.40914615,0,0,1.0150737,432.64793,-3.7281643)"
         id="patch_11"
         style="stroke-linecap:butt;stroke-linejoin:round">
        <path
           d="m 732.597,247.01 585.003,0"
           id="path593"
           style="fill:none;stroke:#000000;stroke-linecap:square;stroke-linejoin:miter" />
      </g>
      <g
         transform="matrix(0.40914615,0,0,1.0150737,432.64793,-3.7281643)"
         id="patch_12"
         style="stroke-linecap:butt;stroke-linejoin:round">
        <path
           d="m 732.597,247.01 0,-235.7964"
           id="path596"
           style="fill:none;stroke:#000000;stroke-linecap:square;stroke-linejoin:miter" />
      </g>
    </g>
  </g>
  <defs
     id="defs1449">
    <clipPath
       id="p4c57954570">
      <rect
         width="585.00281"
         height="235.79633"
         x="74.974396"
         y="11.213601"
         id="rect1452"
         style="stroke-linecap:butt;stroke-linejoin:round" />
    </clipPath>
    <clipPath
       id="pe32678f5a9">
      <rect
         width="585.00281"
         height="235.79633"
         x="74.974396"
         y="320.24722"
         id="rect1455"
         style="stroke-linecap:butt;stroke-linejoin:round" />
    </clipPath>
    <clipPath
       id="p7642ead569">
      <rect
         width="585.00281"
         height="235.79633"
         x="732.59723"
         y="320.24722"
         id="rect1458"
         style="stroke-linecap:butt;stroke-linejoin:round" />
    </clipPath>
    <clipPath
       id="p44d78be1b3">
      <rect
         width="585.00281"
         height="235.79633"
         x="732.59723"
         y="11.213601"
         id="rect1461"
         style="stroke-linecap:butt;stroke-linejoin:round" />
    </clipPath>
  </defs>
</svg>
